<svg width="47" height="47" viewBox="0 0 47 47" fill="none" xmlns="http://www.w3.org/2000/svg">
<g id="&#240;&#159;&#166;&#134; icon &#34;profile circle&#34;">
<g id="Group">
<path id="Vector" d="M47 23.5C47 10.5515 36.4485 0 23.5 0C10.5515 0 0 10.5515 0 23.5C0 30.315 2.9375 36.4485 7.5905 40.749C7.5905 40.7725 7.5905 40.7725 7.567 40.796C7.802 41.031 8.084 41.219 8.319 41.4305C8.46 41.548 8.5775 41.6655 8.7185 41.7595C9.1415 42.112 9.6115 42.441 10.058 42.77C10.2225 42.8875 10.3635 42.9815 10.528 43.099C10.9745 43.4045 11.4445 43.6865 11.938 43.945C12.1025 44.039 12.2905 44.1565 12.455 44.2505C12.925 44.509 13.4185 44.744 13.9355 44.9555C14.1235 45.0495 14.3115 45.1435 14.4995 45.214C15.0165 45.4255 15.5335 45.6135 16.0505 45.778C16.2385 45.8485 16.4265 45.919 16.6145 45.966C17.1785 46.1305 17.7425 46.2715 18.3065 46.4125C18.471 46.4595 18.6355 46.5065 18.8235 46.53C19.4815 46.671 20.1395 46.765 20.821 46.8355C20.915 46.8355 21.009 46.859 21.103 46.8825C21.902 46.953 22.701 47 23.5 47C24.299 47 25.098 46.953 25.8735 46.8825C25.9675 46.8825 26.0615 46.859 26.1555 46.8355C26.837 46.765 27.495 46.671 28.153 46.53C28.3175 46.5065 28.482 46.436 28.67 46.4125C29.234 46.2715 29.8215 46.154 30.362 45.966C30.55 45.8955 30.738 45.825 30.926 45.778C31.443 45.59 31.9835 45.4255 32.477 45.214C32.665 45.1435 32.853 45.0495 33.041 44.9555C33.5345 44.744 34.028 44.509 34.5215 44.2505C34.7095 44.1565 34.874 44.039 35.0385 43.945C35.5085 43.663 35.9785 43.4045 36.4485 43.099C36.613 43.005 36.754 42.8875 36.9185 42.77C37.3885 42.441 37.835 42.112 38.258 41.7595C38.399 41.642 38.5165 41.5245 38.6575 41.4305C38.916 41.219 39.1745 41.0075 39.4095 40.796C39.4095 40.7725 39.4095 40.7725 39.386 40.749C44.0625 36.4485 47 30.315 47 23.5ZM35.109 35.1795C28.7405 30.9025 18.3065 30.9025 11.891 35.1795C10.857 35.861 10.011 36.66 9.306 37.5295C5.734 33.9105 3.525 28.952 3.525 23.5C3.525 12.4785 12.4785 3.525 23.5 3.525C34.5215 3.525 43.475 12.4785 43.475 23.5C43.475 28.952 41.266 33.9105 37.694 37.5295C37.0125 36.66 36.143 35.861 35.109 35.1795Z" fill="#D8E9FF"/>
<path id="Vector_2" d="M23.5 11.5848C18.6355 11.5848 14.6875 15.5328 14.6875 20.3973C14.6875 25.1678 18.424 29.0453 23.3825 29.1863H23.594H23.7585H23.8055C28.5525 29.0218 32.289 25.1678 32.3125 20.3973C32.3125 15.5328 28.3645 11.5848 23.5 11.5848Z" fill="#D8E9FF"/>
</g>
</g>
</svg>
